<svg width="1296" height="343" viewBox="0 0 1296 343" fill="none" xmlns="http://www.w3.org/2000/svg">
  <g clip-path="url(#clip0_2:8)">
    <rect width="1296" height="343" fill="#FFE600" />
    <path fill-rule="evenodd" clip-rule="evenodd"
      d="M789.149 349.959L1168.89 691.023L1323.73 575.672L893.508 309.833L1281.25 467.268L1355.87 337.977L877.263 222.544L1338.77 254.596V121.404L909.419 151.223L1361 52.1598L1291.04 -78.5706L865.906 83.2225L1323.73 -199.672L1168.89 -315.022L812.043 5.47928L1023.38 -283.375L849.821 -338.964L694.87 17.5798L737.895 -326.227L559.105 -326.227L599.132 -6.375L466.155 -342.784L290.668 -290.669L507.852 26.0418L128.107 -315.023L-26.7337 -199.672L403.492 66.1666L15.7492 -91.2673L-58.8718 38.0238L419.736 153.456L-41.7739 121.404L-41.7739 254.596L387.583 224.777L-63.9994 323.84L5.95696 454.571L431.093 292.778L-26.7336 575.672L128.107 691.023L484.956 370.522L273.624 659.375L447.179 714.965L602.13 358.42L559.105 702.227H737.895L697.867 382.373L830.846 718.784L1006.33 666.67L789.149 349.959Z"
      fill="#FFF067" />
    <g filter="url(#filter0_d_2:8)">
      <path
        d="M976 173.323C976 173.323 836.115 176.417 810.433 225.413C784.583 274.727 885.852 348.734 885.852 348.734C885.852 348.734 784.725 278.497 718.732 297.223C649.737 316.8 642.452 427 642.452 427C642.452 427 635.168 316.8 566.173 297.223C500.18 278.497 399.053 348.734 399.053 348.734C399.053 348.734 501.413 274.396 474.472 225.413C449.223 179.505 320 173.323 320 173.323C320 173.323 449.223 167.141 474.472 121.233C501.413 72.2504 399.053 -2.08818 399.053 -2.08818C399.053 -2.08818 500.017 67.8217 566.173 49.4229C636.968 29.7343 642.452 -84 642.452 -84C642.452 -84 647.937 29.7343 718.731 49.4229C784.888 67.8217 885.852 -2.08823 885.852 -2.08823C885.852 -2.08823 784.583 71.9196 810.433 121.233C836.115 170.229 976 173.323 976 173.323Z"
        fill="#AA38BD" fill-opacity="0.88" shape-rendering="crispEdges" />
    </g>
    <g filter="url(#filter1_d_2:8)">
      <path
        d="M425.875 86.75C419.208 107.917 412.958 129.292 407.125 150.875C401.375 172.375 395.917 193.167 390.75 213.25V221C390.75 225.167 390.792 229.125 390.875 232.875C391.042 236.542 391.208 240.208 391.375 243.875C391.542 247.458 391.75 251.167 392 255C392.333 258.75 392.708 262.75 393.125 267H363.125C363.792 261.833 364.375 257.042 364.875 252.625C365.375 248.125 365.75 243.708 366 239.375C366.333 235.042 366.583 230.583 366.75 226C366.917 221.417 367 216.417 367 211C364.667 201.417 362.208 191.458 359.625 181.125C357.125 170.792 354.542 160.417 351.875 150C349.208 139.583 346.542 129.25 343.875 119C341.208 108.667 338.583 98.7083 336 89.125L367.25 86.5C367.583 93.3333 368.125 100.583 368.875 108.25C369.708 115.833 370.667 123.583 371.75 131.5C372.833 139.417 374.042 147.417 375.375 155.5C376.708 163.583 378.083 171.5 379.5 179.25C381.083 171.333 382.625 163.292 384.125 155.125C385.708 146.875 387.167 138.75 388.5 130.75C389.833 122.75 391.042 114.958 392.125 107.375C393.292 99.7917 394.292 92.6667 395.125 86L425.875 86.75ZM500.625 194.375C500.625 204.542 500.167 213.458 499.25 221.125C498.333 228.792 497 235.458 495.25 241.125C493.583 246.708 491.542 251.375 489.125 255.125C486.792 258.792 484.167 261.75 481.25 264C478.417 266.25 475.333 267.833 472 268.75C468.667 269.667 465.25 270.125 461.75 270.125C458.25 270.125 454.875 269.75 451.625 269C448.458 268.25 445.5 266.875 442.75 264.875C440 262.875 437.458 260.167 435.125 256.75C432.875 253.333 430.958 248.958 429.375 243.625C427.792 238.292 426.542 231.917 425.625 224.5C424.792 217.083 424.375 208.375 424.375 198.375C424.375 183.375 425.458 171.083 427.625 161.5C429.875 151.917 432.792 144.375 436.375 138.875C439.958 133.292 444.042 129.458 448.625 127.375C453.208 125.208 457.917 124.125 462.75 124.125C465.833 124.125 468.917 124.458 472 125.125C475.167 125.708 478.125 126.917 480.875 128.75C483.708 130.583 486.333 133.125 488.75 136.375C491.167 139.625 493.25 143.875 495 149.125C496.75 154.292 498.125 160.583 499.125 168C500.125 175.417 500.625 184.208 500.625 194.375ZM473.75 195.375C473.75 187.375 473.458 180.833 472.875 175.75C472.292 170.583 471.5 166.5 470.5 163.5C469.5 160.5 468.292 158.458 466.875 157.375C465.458 156.208 463.917 155.625 462.25 155.625C460.333 155.625 458.667 156.458 457.25 158.125C455.833 159.708 454.625 162.292 453.625 165.875C452.708 169.458 452 174.083 451.5 179.75C451 185.333 450.75 192.167 450.75 200.25C450.75 208.417 451.042 215.208 451.625 220.625C452.292 225.958 453.167 230.25 454.25 233.5C455.417 236.667 456.75 238.917 458.25 240.25C459.833 241.583 461.5 242.25 463.25 242.25C466.917 242.25 469.583 238.458 471.25 230.875C472.917 223.292 473.75 211.458 473.75 195.375ZM591.5 142.625C590.833 156.042 590.375 169.333 590.125 182.5C589.875 195.583 589.75 208.75 589.75 222C589.75 229.833 589.75 237.583 589.75 245.25C589.833 252.917 590 260.667 590.25 268.5L565.375 269.125V253.5C562.875 257.583 560.083 260.708 557 262.875C553.917 265.042 550.958 266.583 548.125 267.5C545.375 268.5 543 269.042 541 269.125C539 269.292 537.833 269.375 537.5 269.375C532.25 268.292 527.875 266 524.375 262.5C520.958 258.917 518.208 254.5 516.125 249.25C514.125 243.917 512.708 237.917 511.875 231.25C511.042 224.583 510.625 217.583 510.625 210.25C510.625 203.917 510.875 197.458 511.375 190.875C511.875 184.292 512.5 177.833 513.25 171.5C514 165.083 514.833 158.917 515.75 153C516.667 147 517.583 141.417 518.5 136.25L545.75 136.75C545 141.667 544.208 147 543.375 152.75C542.625 158.5 541.917 164.375 541.25 170.375C540.667 176.375 540.167 182.417 539.75 188.5C539.417 194.5 539.25 200.208 539.25 205.625C539.25 210.625 539.458 215.292 539.875 219.625C540.292 223.958 540.958 227.75 541.875 231C542.792 234.167 543.958 236.667 545.375 238.5C546.875 240.25 548.708 241.125 550.875 241.125C553.708 241.125 556.042 239.417 557.875 236C559.708 232.583 561.125 228.125 562.125 222.625C563.208 217.042 563.917 210.792 564.25 203.875C564.667 196.958 564.875 190 564.875 183C564.875 177.75 564.792 172.75 564.625 168C564.458 163.25 564.292 159 564.125 155.25C563.875 150.917 563.625 146.875 563.375 143.125L591.5 142.625ZM771.375 90.875L753.875 270.875H720.875C720.625 263.542 720.333 256.667 720 250.25C719.75 243.75 719.375 237.542 718.875 231.625C718.375 225.708 717.792 219.917 717.125 214.25C716.542 208.583 715.833 202.792 715 196.875C714.25 190.958 713.375 184.833 712.375 178.5C711.375 172.083 710.292 165.25 709.125 158C707.542 167.333 705.333 181.333 702.5 200C699.667 218.583 696.25 241.792 692.25 269.625L657.625 271.375L645.125 91.625L676.625 90.875C676.542 96.0417 676.5 101.667 676.5 107.75C676.417 113 676.375 119.042 676.375 125.875C676.375 132.625 676.375 139.833 676.375 147.5C676.375 153.583 676.375 159.75 676.375 166C676.375 172.25 676.375 178.417 676.375 184.5C676.458 190.5 676.5 196.292 676.5 201.875C676.583 207.458 676.708 212.542 676.875 217.125L694 108.25H722.875L736.5 212C736.667 205.833 736.833 199.333 737 192.5C737.25 185.583 737.458 178.625 737.625 171.625C737.792 164.625 737.917 157.708 738 150.875C738.167 144.042 738.333 137.5 738.5 131.25C738.833 116.667 739.125 102.125 739.375 87.625L771.375 90.875ZM819.625 99.875C819.625 102.458 819.208 104.875 818.375 107.125C817.542 109.292 816.292 111.208 814.625 112.875C812.958 114.458 810.833 115.708 808.25 116.625C805.75 117.542 802.792 118 799.375 118C795.625 118 792.458 117.542 789.875 116.625C787.375 115.708 785.292 114.458 783.625 112.875C782.042 111.208 780.875 109.292 780.125 107.125C779.458 104.875 779.125 102.458 779.125 99.875C779.125 97.375 779.5 95.0417 780.25 92.875C781 90.625 782.167 88.6667 783.75 87C785.417 85.3333 787.542 84.0417 790.125 83.125C792.708 82.125 795.792 81.625 799.375 81.625C802.958 81.625 806 82.125 808.5 83.125C811.083 84.0417 813.167 85.3333 814.75 87C816.417 88.6667 817.625 90.625 818.375 92.875C819.208 95.0417 819.625 97.375 819.625 99.875ZM812.125 136.25C811.625 140.833 811.208 145.75 810.875 151C810.542 156.25 810.25 161.708 810 167.375C809.75 172.958 809.583 178.667 809.5 184.5C809.417 190.25 809.375 195.917 809.375 201.5C809.375 208 809.417 214.292 809.5 220.375C809.667 226.375 809.833 231.917 810 237C810.25 242.083 810.5 246.583 810.75 250.5C811.083 254.417 811.458 257.458 811.875 259.625C808.542 259.625 805.083 259.708 801.5 259.875C798.417 260.042 794.958 260.25 791.125 260.5C787.292 260.75 783.458 261.125 779.625 261.625C781.042 246.625 782 232.917 782.5 220.5C783 208 783.25 196.792 783.25 186.875C783.25 178.375 783.083 170.958 782.75 164.625C782.5 158.208 782.208 152.792 781.875 148.375C781.542 143.208 781.125 138.792 780.625 135.125C785.292 135.708 789.542 136.083 793.375 136.25C797.292 136.417 800.667 136.5 803.5 136.5C804.833 136.5 806.042 136.5 807.125 136.5C808.208 136.5 809.125 136.458 809.875 136.375C810.792 136.375 811.542 136.333 812.125 136.25ZM876.625 265.25C878.458 251.833 879.75 238.25 880.5 224.5C881.333 210.75 881.75 196.333 881.75 181.25C881.75 176.167 881.417 172.125 880.75 169.125C880.083 166.042 879.208 163.708 878.125 162.125C877.042 160.458 875.875 159.417 874.625 159C873.375 158.5 872.167 158.25 871 158.25C869.333 158.25 867.75 158.542 866.25 159.125C864.833 159.708 863.5 160.833 862.25 162.5C861 164.167 859.833 166.5 858.75 169.5C857.75 172.5 856.875 176.458 856.125 181.375C855.375 186.292 854.792 192.292 854.375 199.375C854.042 206.375 853.875 214.75 853.875 224.5C853.875 228 853.875 231.667 853.875 235.5C853.875 239.25 853.875 242.833 853.875 246.25C853.958 249.667 854 252.708 854 255.375C854.083 257.958 854.208 259.792 854.375 260.875L826.125 260.625C826.375 253.042 826.542 246.292 826.625 240.375C826.792 234.375 826.917 228.875 827 223.875C827.083 218.875 827.125 214.208 827.125 209.875C827.208 205.458 827.25 201.125 827.25 196.875C827.25 193.042 827.208 189.125 827.125 185.125C827.125 181.042 827.083 176.667 827 172C827 167.333 826.917 162.25 826.75 156.75C826.667 151.167 826.542 145 826.375 138.25L855.625 137.5L855.125 150.25C857.375 146 859.792 142.625 862.375 140.125C864.958 137.542 867.5 135.542 870 134.125C872.583 132.708 875.083 131.792 877.5 131.375C879.917 130.875 882.083 130.625 884 130.625C889.167 130.625 893.417 132.417 896.75 136C900.083 139.583 902.708 144.375 904.625 150.375C906.625 156.292 908 163.083 908.75 170.75C909.5 178.417 909.875 186.375 909.875 194.625C909.875 200.625 909.708 206.708 909.375 212.875C909.125 219.042 908.792 225.125 908.375 231.125C908.042 237.042 907.625 242.792 907.125 248.375C906.708 253.875 906.333 259 906 263.75L876.625 265.25ZM954.875 84.75C952.542 107.833 950.708 131.125 949.375 154.625C948.042 178.125 947.25 201.25 947 224L930.375 224.5C929.792 201.583 929 178.333 928 154.75C927.083 131.167 926 107.917 924.75 85L954.875 84.75ZM952.625 255.5C952.625 257.5 952.208 259.375 951.375 261.125C950.625 262.875 949.583 264.417 948.25 265.75C947 267 945.458 268 943.625 268.75C941.875 269.5 940 269.875 938 269.875C936 269.875 934.125 269.5 932.375 268.75C930.708 268 929.208 267 927.875 265.75C926.542 264.417 925.5 262.875 924.75 261.125C924 259.375 923.625 257.5 923.625 255.5C923.625 253.5 924 251.667 924.75 250C925.5 248.25 926.542 246.708 927.875 245.375C929.208 244.042 930.708 243 932.375 242.25C934.125 241.5 936 241.125 938 241.125C940 241.125 941.875 241.5 943.625 242.25C945.458 243 947 244.042 948.25 245.375C949.583 246.708 950.625 248.25 951.375 250C952.208 251.667 952.625 253.5 952.625 255.5Z"
        fill="#2575ED" />
    </g>
  </g>
  <defs>
    <filter id="filter0_d_2:8" x="310" y="-94" width="666" height="521" filterUnits="userSpaceOnUse"
      color-interpolation-filters="sRGB">
      <feFlood flood-opacity="0" result="BackgroundImageFix" />
      <feColorMatrix in="SourceAlpha" type="matrix" values="0 0 0 0 0 0 0 0 0 0 0 0 0 0 0 0 0 0 127 0"
        result="hardAlpha" />
      <feOffset dx="-10" dy="-10" />
      <feComposite in2="hardAlpha" operator="out" />
      <feColorMatrix type="matrix" values="0 0 0 0 0.4875 0 0 0 0 0.138125 0 0 0 0 0.480716 0 0 0 1 0" />
      <feBlend mode="normal" in2="BackgroundImageFix" result="effect1_dropShadow_2:8" />
      <feBlend mode="normal" in="SourceGraphic" in2="effect1_dropShadow_2:8" result="shape" />
    </filter>
    <filter id="filter1_d_2:8" x="336" y="81.625" width="626.875" height="197.75" filterUnits="userSpaceOnUse"
      color-interpolation-filters="sRGB">
      <feFlood flood-opacity="0" result="BackgroundImageFix" />
      <feColorMatrix in="SourceAlpha" type="matrix" values="0 0 0 0 0 0 0 0 0 0 0 0 0 0 0 0 0 0 127 0"
        result="hardAlpha" />
      <feOffset dx="8" dy="8" />
      <feComposite in2="hardAlpha" operator="out" />
      <feColorMatrix type="matrix" values="0 0 0 0 0 0 0 0 0 0 0 0 0 0 0 0 0 0 1 0" />
      <feBlend mode="normal" in2="BackgroundImageFix" result="effect1_dropShadow_2:8" />
      <feBlend mode="normal" in="SourceGraphic" in2="effect1_dropShadow_2:8" result="shape" />
    </filter>
    <clipPath id="clip0_2:8">
      <rect width="1296" height="343" fill="white" />
    </clipPath>
  </defs>
</svg>