<svg width="128" height="128" viewBox="0 0 512 512" fill="none" xmlns="http://www.w3.org/2000/svg">
  <g clip-path="url(#clip0_13:98)">
    <path fill-rule="evenodd" clip-rule="evenodd"
      d="M12.4541 286.799L225.73 500.469C229.881 504.628 234.897 507.921 240.26 510V317.298C225.211 304.821 204.454 296.85 176.432 293.211H176.259C155.329 290.092 139.589 284.546 128.345 276.055C113.47 265.138 106.032 249.368 106.032 229.266V218.349C95.8266 214.882 88.5617 205.178 88.5617 193.914C88.5617 179.878 100.151 168.267 114.162 168.267C128.173 168.267 139.762 179.878 139.762 193.914C139.762 205.352 132.497 214.882 122.292 218.349V229.266C122.292 256.82 139.589 271.549 178.508 277.441C203.762 280.56 224 287.319 240.086 297.543V257.166C233.34 252.487 224.519 249.887 212.929 248.154C188.887 244.689 176.778 233.425 176.778 214.882V195.3C165.535 192.527 156.886 182.477 156.886 170.173C156.886 156.136 168.475 144.699 182.486 144.699C196.497 144.699 208.087 156.309 208.087 170.346C208.087 182.65 199.437 192.875 188.194 195.474V215.056C188.194 223.547 191.135 233.598 214.486 237.064C224.519 238.277 232.995 240.703 240.086 244.169V172.252C230.746 166.881 224.519 156.829 224.519 145.218C224.519 127.716 238.703 113.68 255.999 113.68C273.47 113.68 287.481 127.89 287.481 145.218C287.481 156.656 281.254 166.707 271.914 172.252V256.472C279.697 251.621 289.557 248.501 301.664 247.114C320.345 244.169 328.303 237.584 328.303 224.76V197.034C316.886 194.607 308.065 184.209 308.065 171.906C308.065 157.523 319.654 145.912 333.665 145.912C347.676 145.912 359.264 157.523 359.264 171.732C359.264 183.863 350.789 193.914 339.719 196.686V224.587C339.719 243.129 327.438 254.566 303.394 258.206H303.221C289.21 259.939 279.005 263.924 271.74 270.336V282.986C279.179 289.052 289.384 293.037 302.875 294.771H303.049C320.173 297.37 331.07 303.781 336.26 313.832C374.313 307.768 391.265 292.864 391.265 265.83V218.175C380.713 214.882 373.275 204.832 373.275 193.567C373.275 179.53 384.865 167.92 398.876 167.92C405.795 167.92 412.194 170.692 417.038 175.545C421.708 180.57 424.303 186.982 424.303 193.741C424.303 205.004 417.211 214.536 407.871 218.175V266.004C407.871 286.105 400.432 301.875 385.557 312.793C374.66 320.937 359.611 326.483 339.892 329.775V338.787C347.329 341.04 352.865 348.318 352.865 356.462C352.865 364.607 347.329 371.712 339.892 374.138V378.297C339.892 396.84 327.61 408.277 303.568 411.916H303.394C289.557 413.649 279.524 417.462 272.259 423.7V509.826C277.276 507.747 282.119 504.628 286.27 500.469L499.546 286.799C516.151 270.163 516.151 242.783 499.546 226.147L286.27 12.4771C269.665 -4.15903 242.335 -4.15903 225.73 12.4771L12.4541 226.147C-4.15136 242.783 -4.15136 270.163 12.4541 286.799ZM333.318 155.616C324.497 155.616 317.232 162.894 317.232 171.906C317.232 180.57 324.67 188.022 333.318 188.022C342.14 188.022 349.405 180.917 349.405 171.906C349.405 162.894 342.313 155.616 333.318 155.616ZM166.054 170.173C166.054 179.01 173.319 186.289 182.141 186.289C190.789 186.289 198.227 179.01 198.227 170.173C198.227 161.335 190.962 154.056 182.141 154.056C173.319 154.056 166.054 161.162 166.054 170.173ZM97.7293 193.567C97.7293 202.579 104.994 209.683 113.816 209.683C122.465 209.683 129.902 202.405 129.902 193.567C129.902 184.729 122.637 177.451 113.816 177.451C104.994 177.451 97.7293 184.557 97.7293 193.567ZM233.686 144.872C233.686 157.003 243.545 166.881 255.654 166.881C267.762 166.881 277.622 156.829 277.622 144.699C277.622 132.569 267.762 122.691 255.654 122.691C243.545 122.691 233.686 132.569 233.686 144.872ZM301.145 306.034C289.21 304.475 279.524 301.355 271.567 296.85V335.147C285.406 325.963 302.876 319.551 323.632 315.738C319.654 310.713 312.216 307.768 301.145 306.034ZM314.984 356.462C314.984 348.318 320.519 341.212 327.957 338.787V331.508C303.74 335.667 285.406 343.465 271.914 355.423V409.836C279.697 405.157 289.384 402.038 301.319 400.652C320 397.706 327.784 391.121 327.957 378.297V374.138C320.519 371.885 314.984 364.954 314.984 356.462ZM382.789 193.741C382.789 202.579 389.881 209.857 398.876 209.857C407.697 209.857 414.962 202.579 414.962 193.567C414.962 189.408 413.579 185.423 410.465 182.303C407.352 179.358 403.2 177.624 398.876 177.624C390.054 177.624 382.789 184.903 382.789 193.741Z"
      fill="#15A04B" />
    <path
      d="M399.553 168.075C385.532 168.075 373.933 179.649 373.933 193.643C373.933 204.873 381.377 214.892 391.937 218.175V265.684C391.937 292.635 374.972 307.493 336.889 313.539C331.696 303.519 320.79 297.127 303.653 294.536H303.479C289.977 292.808 279.764 288.835 272.32 282.787V270.176C279.59 263.784 289.803 259.811 303.825 258.083H303.998C328.061 254.455 340.351 243.053 340.351 224.568V196.752C351.43 193.989 359.912 183.968 359.912 171.875C359.912 157.709 348.314 146.134 334.292 146.134C320.271 146.134 308.672 157.709 308.672 172.048C308.672 184.313 317.501 194.679 328.926 197.098V224.74C328.926 237.525 320.963 244.089 302.267 247.026C290.15 248.409 280.283 251.518 272.493 256.355V172.393C281.841 166.865 288.073 156.844 288.073 145.442C288.073 128.167 274.051 114 256.567 114C239.257 114 225.062 127.994 225.062 145.442C225.062 157.018 231.294 167.038 240.641 172.393V244.089C233.544 240.634 225.062 238.215 215.021 237.006C191.652 233.55 188.71 223.531 188.71 215.065V195.544C199.961 192.952 208.617 182.759 208.617 170.493C208.617 156.499 197.019 144.924 182.997 144.924C168.975 144.924 157.377 156.326 157.377 170.32C157.377 182.587 166.033 192.606 177.284 195.371V214.892C177.284 233.378 189.402 244.607 213.463 248.062C225.062 249.79 233.89 252.382 240.641 257.046V297.299C224.543 287.107 204.289 280.369 179.016 277.259C140.067 271.385 122.756 256.701 122.756 229.232V218.348C132.969 214.892 140.239 205.391 140.239 193.989C140.239 179.995 128.642 168.42 114.62 168.42C100.599 168.42 89 179.995 89 193.989C89 205.218 96.2705 214.892 106.484 218.348V229.232C106.484 249.272 113.927 264.994 128.814 275.878C140.067 284.342 155.819 289.871 176.765 292.981H176.939C204.982 296.609 225.755 304.555 240.815 316.994V509.105C251.028 513.078 262.626 512.905 272.839 508.932V423.07C280.11 416.851 290.15 413.05 303.998 411.322H304.172C328.233 407.694 340.524 396.292 340.524 377.806V373.66C347.967 371.242 353.507 364.158 353.507 356.038C353.507 347.919 347.967 340.663 340.524 338.417V329.433C360.258 326.151 375.319 320.622 386.224 312.503C401.111 301.619 408.555 285.897 408.555 265.857V218.175C417.903 214.547 425 205.045 425 193.816C425 187.078 422.403 180.685 417.73 175.676C412.882 170.838 406.478 168.075 399.553 168.075ZM317.847 172.048C317.847 163.064 325.117 155.808 333.946 155.808C342.947 155.808 350.045 163.064 350.045 172.048C350.045 181.032 342.774 188.115 333.946 188.115C325.291 188.115 317.847 180.685 317.847 172.048ZM182.651 186.387C173.823 186.387 166.552 179.131 166.552 170.32C166.552 161.337 173.823 154.253 182.651 154.253C191.48 154.253 198.75 161.509 198.75 170.32C198.75 179.131 191.306 186.387 182.651 186.387ZM114.273 209.709C105.445 209.709 98.1747 202.627 98.1747 193.643C98.1747 184.66 105.445 177.576 114.273 177.576C123.102 177.576 130.372 184.832 130.372 193.643C130.372 202.453 122.929 209.709 114.273 209.709ZM256.221 167.038C244.103 167.038 234.236 157.191 234.236 145.097C234.236 132.831 244.103 122.984 256.221 122.984C268.339 122.984 278.206 132.831 278.206 144.924C278.206 157.018 268.339 167.038 256.221 167.038ZM272.147 296.609C280.11 301.1 289.803 304.21 301.748 305.765C312.827 307.493 320.271 310.43 324.252 315.439C303.479 319.24 285.996 325.633 272.147 334.789V296.609ZM328.58 338.417C321.136 340.835 315.597 347.919 315.597 356.038C315.597 364.504 321.136 371.414 328.58 373.66V377.806C328.407 390.59 320.617 397.156 301.921 400.093C289.977 401.474 280.283 404.584 272.493 409.249V355.002C285.996 343.081 304.344 335.307 328.58 331.161V338.417ZM399.553 209.882C390.551 209.882 383.454 202.627 383.454 193.816C383.454 185.005 390.725 177.749 399.553 177.749C403.881 177.749 408.036 179.477 411.152 182.413C414.268 185.523 415.652 189.496 415.652 193.643C415.652 202.627 408.382 209.882 399.553 209.882Z"
      fill="white" />
  </g>
  <defs>
    <clipPath id="clip0_13:98">
      <rect width="512" height="512" fill="white" />
    </clipPath>
  </defs>
</svg>